<?xml version="1.0" encoding="UTF-8" standalone="no"?>
<svg width="331px" height="75px" viewBox="0 0 331 75" version="1.1" xmlns="http://www.w3.org/2000/svg" xmlns:xlink="http://www.w3.org/1999/xlink">
    <!-- Generator: Sketch 3.8.3 (29802) - http://www.bohemiancoding.com/sketch -->
    <title>Group</title>
    <desc>Created with Sketch.</desc>
    <defs></defs>
    <g id="Page-1" stroke="none" stroke-width="1" fill="none" fill-rule="evenodd">
        <g id="iPad-Portrait" transform="translate(-179.000000, -179.000000)" fill="#C5197D">
            <g id="Group" transform="translate(179.000000, 179.000000)">
                <path d="M59.0859375,56.1171875 C57.9374943,56.6093775 56.8242241,57.2597616 55.7460938,58.0683594 C54.6679634,58.8769572 53.5781305,59.7617139 52.4765625,60.7226563 C51.3749945,61.6835986 50.2324278,62.6972603 49.0488281,63.7636719 C47.8652285,64.8300835 46.5878975,65.8847604 45.2167969,66.9277344 C43.8456963,67.9707083 42.3515706,68.9667921 40.734375,69.9160156 C39.1171794,70.8652391 37.3300879,71.6972621 35.3730469,72.4121094 C33.4160058,73.1269567 31.2597774,73.6953104 28.9042969,74.1171875 C26.5488163,74.5390646 23.9414205,74.75 21.0820312,74.75 C17.9179529,74.75 15.0644658,74.1113345 12.5214844,72.8339844 C9.97850291,71.5566342 7.80469652,69.8339952 6,67.6660156 C4.19530348,65.498036 2.80664549,62.97853 1.83398438,60.1074219 C0.861323262,57.2363138 0.375,54.2187658 0.375,51.0546875 C0.375,48.8984267 0.609372656,46.5839967 1.078125,44.1113281 C1.54687734,41.6386595 2.22069873,39.1191535 3.09960938,36.5527344 C3.97852002,33.9863153 5.05077492,31.425794 6.31640625,28.8710938 C7.58203758,26.3163935 9.0175701,23.8671992 10.6230469,21.5234375 C12.2285237,19.1796758 13.9921779,17.0058694 15.9140625,15.0019531 C17.8359471,12.9980369 19.8867079,11.2519606 22.0664062,9.76367188 C24.2461046,8.27538318 26.5429567,7.10937922 28.9570312,6.265625 C31.3711058,5.42187078 33.8788932,5 36.4804688,5 C38.1679772,5 39.8788976,5.29882514 41.6132812,5.89648438 C43.3476649,6.49414361 44.9062431,7.41405629 46.2890625,8.65625 C47.6718819,9.89844371 48.80273,11.4687405 49.6816406,13.3671875 C50.5605513,15.2656345 51,17.5038934 51,20.0820312 C51,21.8164149 50.7246121,23.5683505 50.1738281,25.3378906 C49.6230441,27.1074307 48.8671923,28.8066325 47.90625,30.4355469 C46.9453077,32.0644613 45.8144596,33.5937429 44.5136719,35.0234375 C43.2128841,36.4531321 41.8125075,37.6894479 40.3125,38.7324219 C38.8124925,39.7753958 37.2539143,40.6015595 35.6367188,41.2109375 C34.0195232,41.8203155 32.4023518,42.125 30.7851563,42.125 C28.6523331,42.125 27.058599,41.8378935 26.0039062,41.2636719 C24.9492135,40.6894503 24.421875,39.8632866 24.421875,38.7851562 C24.421875,38.5976553 24.4160157,38.3750013 24.4042969,38.1171875 C24.3925781,37.8593737 24.3867188,37.5898452 24.3867188,37.3085938 C24.3867188,36.8867166 24.410156,36.4472679 24.4570312,35.9902344 C24.5039065,35.5332008 24.5976555,35.1171894 24.7382812,34.7421875 C24.878907,34.3671856 25.083983,34.0625012 25.3535156,33.828125 C25.6230482,33.5937488 25.9921852,33.4765625 26.4609375,33.4765625 C26.7421889,33.4765625 26.9882802,33.5175777 27.1992188,33.5996094 C27.4101573,33.681641 27.64453,33.7695308 27.9023438,33.8632812 C28.1601575,33.9570317 28.4707013,34.0449215 28.8339844,34.1269531 C29.1972674,34.2089848 29.6601534,34.25 30.2226562,34.25 C31.7226638,34.25 33.2402267,33.9218783 34.7753906,33.265625 C36.3105546,32.6093717 37.6933532,31.6835997 38.9238281,30.4882812 C40.154303,29.2929628 41.1621054,27.8691489 41.9472656,26.2167969 C42.7324258,24.5644449 43.125,22.7421975 43.125,20.75 C43.125,19.6953072 42.9843764,18.6933641 42.703125,17.7441406 C42.4218736,16.7949171 41.9648469,15.9628942 41.3320312,15.2480469 C40.6992156,14.5331996 39.8847706,13.9589865 38.8886719,13.5253906 C37.8925731,13.0917947 36.6796946,12.875 35.25,12.875 C33.5624916,12.875 31.9160237,13.2441369 30.3105469,13.9824219 C28.7050701,14.7207068 27.1640699,15.7226499 25.6875,16.9882812 C24.2109301,18.2539126 22.8105535,19.7538976 21.4863281,21.4882812 C20.1621028,23.2226649 18.9375056,25.0800682 17.8125,27.0605469 C16.6874944,29.0410255 15.6738326,31.1035049 14.7714844,33.2480469 C13.8691361,35.3925888 13.1015657,37.5312393 12.46875,39.6640625 C11.8359343,41.7968857 11.3496111,43.8652244 11.0097656,45.8691406 C10.6699202,47.8730569 10.5,49.7187416 10.5,51.40625 C10.5,53.8203246 10.7988251,55.9238192 11.3964844,57.7167969 C11.9941436,59.5097746 12.8437445,61.0039003 13.9453125,62.1992188 C15.0468805,63.3945372 16.3945233,64.2851533 17.9882812,64.8710938 C19.5820392,65.4570342 21.37499,65.75 23.3671875,65.75 C25.8515749,65.75 28.1660049,65.4394562 30.3105469,64.8183594 C32.4550888,64.1972625 34.4999903,63.3828175 36.4453125,62.375 C38.3906347,61.3671825 40.2714753,60.2304751 42.0878906,58.9648438 C43.904306,57.6992124 45.720694,56.4277408 47.5371094,55.1503906 C49.3535247,53.8730405 51.2050687,52.6543027 53.0917969,51.4941406 C54.9785251,50.3339786 56.976552,49.3554727 59.0859375,48.5585938 L59.0859375,56.1171875 Z" id="C"></path>
                <path d="M73.0859375,41.6679688 C73.7656284,43.0273505 74.2753889,44.4628831 74.6152344,45.9746094 C74.9550798,47.4863357 75.125,48.9335868 75.125,50.3164062 C75.125,51.6992257 74.9726578,53.093743 74.6679688,54.5 C74.3632797,55.906257 73.923831,57.2656184 73.3496094,58.578125 C72.7753878,59.8906316 72.0722698,61.121088 71.2402344,62.2695312 C70.408199,63.4179745 69.4589897,64.4140583 68.3925781,65.2578125 C67.3261665,66.1015667 66.1601626,66.7695288 64.8945312,67.2617188 C63.6288999,67.7539087 62.2812571,68 60.8515625,68 C58.7890522,68 57.0253979,67.5488326 55.5605469,66.6464844 C54.0956958,65.7441361 52.8945359,64.5664135 51.9570312,63.1132812 C51.0195266,61.660149 50.3339865,60.0195404 49.9003906,58.1914062 C49.4667947,56.3632721 49.25,54.5117281 49.25,52.6367188 C49.25,50.0585809 49.6367149,47.6504018 50.4101562,45.4121094 C51.1835976,43.1738169 52.2910084,41.2285239 53.7324219,39.5761719 C55.1738353,37.9238199 56.9374896,36.6230516 59.0234375,35.6738281 C61.1093854,34.7246046 63.453112,34.25 66.0546875,34.25 C68.2812611,34.25 70.3671778,34.5956997 72.3125,35.2871094 C74.2578222,35.9785191 76.0800696,36.9042911 77.7792969,38.0644531 C79.4785241,39.2246152 81.0605396,40.55468 82.5253906,42.0546875 C83.9902417,43.554695 85.3554624,45.1015545 86.6210938,46.6953125 L85.953125,51.6523438 C85.3203093,50.8085895 84.4648491,49.8945362 83.3867188,48.9101562 C82.3085884,47.9257763 81.1660217,46.9648484 79.9589844,46.0273438 C78.7519471,45.0898391 77.5625059,44.2050823 76.390625,43.3730469 C75.2187441,42.5410115 74.2109417,41.8437528 73.3671875,41.28125 L73.0859375,41.6679688 Z M62.2226562,61.25 C63.0195352,61.25 63.792965,60.8457072 64.5429688,60.0371094 C65.2929725,59.2285116 65.9492159,58.2089905 66.5117188,56.9785156 C67.0742216,55.7480407 67.5253889,54.3886793 67.8652344,52.9003906 C68.2050798,51.4121019 68.375,49.988288 68.375,48.6289062 C68.375,47.5507759 68.2929696,46.5488328 68.1289062,45.6230469 C67.9648429,44.697261 67.7187516,43.8945346 67.390625,43.2148438 C67.0624984,42.5351529 66.6406276,41.9960957 66.125,41.5976562 C65.6093724,41.1992168 64.9882849,41 64.2617188,41 C63.3007764,41 62.3867231,41.4101521 61.5195312,42.2304688 C60.6523394,43.0507854 59.8906283,44.099603 59.234375,45.3769531 C58.5781217,46.6543033 58.0625019,48.0663985 57.6875,49.6132812 C57.3124981,51.160164 57.125,52.6484304 57.125,54.078125 C57.125,55.0625049 57.2187491,55.9882769 57.40625,56.8554688 C57.5937509,57.7226606 57.8867168,58.4785124 58.2851562,59.1230469 C58.6835957,59.7675813 59.2109342,60.2832012 59.8671875,60.6699219 C60.5234408,61.0566426 61.3085892,61.25 62.2226562,61.25 L62.2226562,61.25 Z" id="o"></path>
                <path d="M97.96875,41.421875 C96.4218673,42.1718787 95.0449279,43.1621032 93.8378906,44.3925781 C92.6308533,45.623053 91.6230509,46.9531179 90.8144531,48.3828125 C90.0058553,49.8125071 89.3906271,51.253899 88.96875,52.7070313 C88.5468729,54.1601635 88.3359375,55.4726504 88.3359375,56.6445313 C88.3359375,57.1132836 88.3886713,57.5820289 88.4941406,58.0507813 C88.5996099,58.5195336 88.7929673,58.9414044 89.0742188,59.3164063 C89.3554702,59.6914081 89.7539037,59.9960926 90.2695312,60.2304688 C90.7851588,60.4648449 91.4531209,60.5820313 92.2734375,60.5820313 C92.6953146,60.5820313 93.1113261,60.4765636 93.5214844,60.265625 C93.9316427,60.0546864 94.3242169,59.7792986 94.6992188,59.4394531 C95.0742206,59.0996077 95.4316389,58.7128928 95.7714844,58.2792969 C96.1113298,57.845701 96.4218736,57.3945336 96.703125,56.9257813 C97.3593783,55.8476509 97.9570286,54.628913 98.4960938,53.2695313 C98.4257809,52.9414046 98.3671877,52.4199254 98.3203125,51.7050781 C98.2734373,50.9902308 98.2382814,50.1933638 98.2148438,49.3144531 C98.1914061,48.4355425 98.1679689,47.5273484 98.1445312,46.5898438 C98.1210936,45.6523391 98.1035157,44.7968789 98.0917969,44.0234375 C98.0800781,43.2499961 98.0625001,42.61719 98.0390625,42.125 C98.0156249,41.63281 97.9921876,41.3984374 97.96875,41.421875 L97.96875,41.421875 Z M122.15625,61.109375 C120.492179,62.3984439 118.851571,63.54687 117.234375,64.5546875 C116.554684,64.9765646 115.839848,65.3925761 115.089844,65.8027344 C114.33984,66.2128927 113.601566,66.5761703 112.875,66.8925781 C112.148434,67.208986 111.439457,67.4667959 110.748047,67.6660156 C110.056637,67.8652354 109.417972,67.9648438 108.832031,67.9648438 C108.503905,67.9648438 108.017581,67.894532 107.373047,67.7539062 C106.728512,67.6132805 106.025394,67.326174 105.263672,66.8925781 C104.501949,66.4589822 103.740238,65.8320354 102.978516,65.0117188 C102.216793,64.1914021 101.55469,63.1015693 100.992188,61.7421875 C100.124996,62.5859417 99.205083,63.3886681 98.2324219,64.1503906 C97.2597608,64.9121132 96.2519583,65.5742159 95.2089844,66.1367188 C94.1660104,66.6992216 93.1113335,67.1503889 92.0449219,67.4902344 C90.9785103,67.8300798 89.9062554,68 88.828125,68 C87.3046799,68 85.9863337,67.6718783 84.8730469,67.015625 C83.7597601,66.3593717 82.8339881,65.4863336 82.0957031,64.3964844 C81.3574182,63.3066352 80.8066424,62.0703194 80.4433594,60.6875 C80.0800763,59.3046806 79.8984375,57.8750074 79.8984375,56.3984375 C79.8984375,54.89843 80.0917949,53.3808671 80.4785156,51.8457031 C80.8652363,50.3105392 81.4277307,48.8222728 82.1660156,47.3808594 C82.9043006,45.9394459 83.800776,44.5800845 84.8554688,43.3027344 C85.9101615,42.0253842 87.1054621,40.8886769 88.4414062,39.8925781 C89.7773504,38.8964794 91.2304609,38.0703158 92.8007812,37.4140625 C94.3711016,36.7578092 96.0468661,36.3476571 97.828125,36.1835938 C97.8984379,33.1835788 98.1679664,30.2187646 98.6367188,27.2890625 C99.1054711,24.3593604 99.7265586,21.5703257 100.5,18.921875 C101.273441,16.2734243 102.181635,13.82423 103.224609,11.5742188 C104.267583,9.3242075 105.41015,7.37891445 106.652344,5.73828125 C107.894537,4.09764805 109.218743,2.81445775 110.625,1.88867188 C112.031257,0.962885996 113.484368,0.5 114.984375,0.5 C116.085943,0.5 117.023434,0.787106504 117.796875,1.36132812 C118.570316,1.93554975 119.197263,2.69726088 119.677734,3.64648438 C120.158206,4.59570787 120.503905,5.69725936 120.714844,6.95117188 C120.925782,8.20508439 121.03125,9.49999332 121.03125,10.8359375 C121.03125,11.6562541 120.996094,12.4999957 120.925781,13.3671875 C120.621092,16.6718915 120.058598,19.7949072 119.238281,22.7363281 C118.417965,25.6777491 117.457037,28.5429548 116.355469,31.3320312 C115.253901,34.1211077 114.0586,36.886705 112.769531,39.6289062 C111.480462,42.3711075 110.226569,45.2187352 109.007812,48.171875 C108.890624,48.5000016 108.773438,48.8984352 108.65625,49.3671875 C108.539062,49.8359398 108.427735,50.3457004 108.322266,50.8964844 C108.216796,51.4472684 108.128907,52.0097628 108.058594,52.5839844 C107.988281,53.158206 107.953125,53.7148411 107.953125,54.2539062 C107.953125,54.9335971 107.99414,55.578122 108.076172,56.1875 C108.158204,56.796878 108.292968,57.3417945 108.480469,57.8222656 C108.66797,58.3027368 108.91992,58.6835923 109.236328,58.9648438 C109.552736,59.2460952 109.94531,59.3867188 110.414062,59.3867188 C110.859377,59.3867188 111.3457,59.298829 111.873047,59.1230469 C112.400393,58.9472647 112.957028,58.7070328 113.542969,58.4023438 C114.128909,58.0976547 114.7207,57.7519551 115.318359,57.3652344 C115.916019,56.9785137 116.496091,56.5859395 117.058594,56.1875 C118.347663,55.2499953 119.695305,54.1835997 121.101562,52.9882812 L122.15625,61.109375 Z M114.492188,15.9335938 C114.632813,14.2929605 114.703125,12.9921923 114.703125,12.03125 C114.703125,10.7656187 114.591798,9.88672121 114.369141,9.39453125 C114.146483,8.90234129 113.824221,8.65625 113.402344,8.65625 C112.65234,8.65625 111.972659,9.13085463 111.363281,10.0800781 C110.753903,11.0293016 110.214846,12.2421801 109.746094,13.71875 C109.277341,15.1953199 108.867189,16.8242098 108.515625,18.6054688 C108.164061,20.3867277 107.871095,22.1093667 107.636719,23.7734375 C107.402343,25.4375083 107.214844,26.9374933 107.074219,28.2734375 C106.933593,29.6093817 106.839844,30.5585909 106.792969,31.1210938 C106.699218,32.269537 106.623047,33.3769478 106.564453,34.4433594 C106.505859,35.509771 106.464844,36.4824175 106.441406,37.3613281 C106.417969,38.2402388 106.40625,39.0078092 106.40625,39.6640625 L106.40625,41.1757812 L106.40625,41.5273438 C107.742194,38.4804535 108.972651,35.4453276 110.097656,32.421875 C110.566409,31.1328061 111.041013,29.779304 111.521484,28.3613281 C112.001956,26.9433523 112.441404,25.5195384 112.839844,24.0898438 C113.238283,22.6601491 113.583983,21.2539132 113.876953,19.8710938 C114.169923,18.4882743 114.374999,17.1757875 114.492188,15.9335938 L114.492188,15.9335938 Z" id="d"></path>
                <path d="M132.382812,68 C130.179676,68 128.251961,67.6015665 126.599609,66.8046875 C124.947257,66.0078085 123.570318,64.9355536 122.46875,63.5878906 C121.367182,62.2402276 120.541018,60.6816495 119.990234,58.9121094 C119.43945,57.1425693 119.164062,55.285166 119.164062,53.3398438 C119.164062,52.0273372 119.292967,50.6386792 119.550781,49.1738281 C119.808595,47.7089771 120.201169,46.2734445 120.728516,44.8671875 C121.255862,43.4609305 121.917965,42.119147 122.714844,40.8417969 C123.511723,39.5644467 124.443354,38.439458 125.509766,37.4667969 C126.576177,36.4941358 127.771478,35.720706 129.095703,35.1464844 C130.419928,34.5722628 131.890617,34.2851562 133.507812,34.2851562 C134.820319,34.2851562 136.039057,34.4960916 137.164062,34.9179688 C138.289068,35.3398459 139.267574,35.9316368 140.099609,36.6933594 C140.931645,37.4550819 141.582029,38.3749946 142.050781,39.453125 C142.519534,40.5312554 142.753906,41.7382746 142.753906,43.0742188 C142.753906,44.527351 142.396488,45.9804615 141.681641,47.4335938 C140.966793,48.886726 139.976569,50.2578061 138.710938,51.546875 C137.445306,52.8359439 135.939462,53.98437 134.193359,54.9921875 C132.447257,56.000005 130.554698,56.7851534 128.515625,57.3476562 C128.867189,57.9804719 129.212889,58.5078104 129.552734,58.9296875 C129.89258,59.3515646 130.238279,59.6796863 130.589844,59.9140625 C130.941408,60.1484387 131.310545,60.3124995 131.697266,60.40625 C132.083986,60.5000005 132.499998,60.546875 132.945312,60.546875 C134.35157,60.546875 135.833977,60.2656278 137.392578,59.703125 C138.95118,59.1406222 140.468743,58.4375042 141.945312,57.59375 C143.421882,56.7499958 144.8164,55.8300831 146.128906,54.8339844 C147.441413,53.8378856 148.554683,52.8945357 149.46875,52.0039062 L154.003906,56.7148438 C151.941396,58.8476669 149.750012,60.7343668 147.429688,62.375 C146.42187,63.0781285 145.337896,63.7695279 144.177734,64.4492188 C143.017572,65.1289096 141.798835,65.7324192 140.521484,66.2597656 C139.244134,66.787112 137.919929,67.2089828 136.548828,67.5253906 C135.177728,67.8417985 133.78907,68 132.382812,68 L132.382812,68 Z M127.707031,51.4765625 C128.550785,51.4765625 129.470698,51.2597678 130.466797,50.8261719 C131.462896,50.392576 132.388668,49.8359409 133.244141,49.15625 C134.099614,48.4765591 134.82031,47.7382852 135.40625,46.9414062 C135.99219,46.1445273 136.285156,45.3710975 136.285156,44.6210938 C136.285156,43.566401 136.091799,42.6992221 135.705078,42.0195312 C135.318357,41.3398404 134.843753,41 134.28125,41 C133.273432,41 132.412113,41.1874981 131.697266,41.5625 C130.982418,41.9375019 130.384768,42.4238251 129.904297,43.0214844 C129.423826,43.6191436 129.037111,44.2988243 128.744141,45.0605469 C128.45117,45.8222694 128.228516,46.5898399 128.076172,47.3632812 C127.923827,48.1367226 127.824219,48.8867151 127.777344,49.6132812 C127.730469,50.3398474 127.707031,50.9609349 127.707031,51.4765625 L127.707031,51.4765625 Z" id="e"></path>
                <path d="M155.339844,68 C154.074212,68 152.89649,67.4433649 151.806641,66.3300781 C150.716791,65.2167913 149.767582,63.7226656 148.958984,61.8476562 C148.150387,59.9726469 147.51758,57.7988405 147.060547,55.3261719 C146.603513,52.8535033 146.375,50.2578261 146.375,47.5390625 C146.375,45.4531146 146.527342,43.1855591 146.832031,40.7363281 C147.13672,38.2870971 147.582028,35.7617318 148.167969,33.1601562 C148.753909,30.5585807 149.451168,27.9453256 150.259766,25.3203125 C151.068363,22.6952994 151.982417,20.1757933 153.001953,17.7617188 C154.021489,15.3476442 155.1289,13.0918074 156.324219,10.9941406 C157.519537,8.89647389 158.773431,7.06836717 160.085938,5.50976562 C161.398444,3.95116408 162.769524,2.72656695 164.199219,1.8359375 C165.628913,0.945308047 167.082024,0.5 168.558594,0.5 C169.566411,0.5 170.398434,0.72851334 171.054688,1.18554688 C171.710941,1.64258041 172.226561,2.24609 172.601562,2.99609375 C172.976564,3.7460975 173.240234,4.59569838 173.392578,5.54492188 C173.544923,6.49414537 173.621094,7.46093258 173.621094,8.4453125 C173.621094,10.6484485 173.369143,12.8925667 172.865234,15.1777344 C172.361326,17.4629021 171.681645,19.7597541 170.826172,22.0683594 C169.970699,24.3769647 168.980474,26.6913946 167.855469,29.0117188 C166.730463,31.3320429 165.5586,33.6347542 164.339844,35.9199219 C163.121088,38.2050896 161.896491,40.4550671 160.666016,42.6699219 C159.435541,44.8847767 158.281255,47.0468645 157.203125,49.15625 C157.085937,49.3906262 156.962891,49.6953106 156.833984,50.0703125 C156.705077,50.4453144 156.582032,50.8496072 156.464844,51.2832031 C156.347656,51.716799 156.230469,52.179685 156.113281,52.671875 C155.996093,53.164065 155.902344,53.6445289 155.832031,54.1132812 L155.832031,54.6054688 C155.832031,55.2148468 155.896484,55.8066378 156.025391,56.3808594 C156.154298,56.955081 156.312499,57.4707008 156.5,57.9277344 C156.687501,58.3847679 156.886718,58.7480455 157.097656,59.0175781 C157.308595,59.2871107 157.507812,59.421875 157.695312,59.421875 C158.140627,59.421875 158.650388,59.3281259 159.224609,59.140625 C159.798831,58.9531241 160.4082,58.7011735 161.052734,58.3847656 C161.697269,58.0683578 162.359372,57.7050802 163.039062,57.2949219 C163.718753,56.8847636 164.374997,56.4687521 165.007812,56.046875 C166.484382,55.0624951 168.031242,53.9257877 169.648438,52.6367188 L172.53125,60.0195312 C170.445302,61.5195387 168.382823,62.8554629 166.34375,64.0273438 C165.453121,64.5195337 164.533208,65.005857 163.583984,65.4863281 C162.634761,65.9667993 161.679692,66.3945294 160.71875,66.7695312 C159.757808,67.1445331 158.820317,67.4433583 157.90625,67.6660156 C156.992183,67.888673 156.136723,68 155.339844,68 L155.339844,68 Z M155.375,39.875 C156.429693,37.9999906 157.548822,35.8906367 158.732422,33.546875 C159.916022,31.2031133 161.035151,28.7890749 162.089844,26.3046875 C163.144537,23.8203001 164.05859,21.3418092 164.832031,18.8691406 C165.605473,16.396472 166.097655,14.0937607 166.308594,11.9609375 C166.308594,11.2812466 166.291016,10.7011743 166.255859,10.2207031 C166.220703,9.74023197 166.109376,9.5 165.921875,9.5 C165.242184,9.5 164.50977,9.93944873 163.724609,10.8183594 C162.939449,11.69727 162.154301,12.8867113 161.369141,14.3867188 C160.58398,15.8867262 159.833988,17.6328025 159.119141,19.625 C158.404293,21.6171975 157.765628,23.73827 157.203125,25.9882812 C156.640622,28.2382925 156.195314,30.5527225 155.867188,32.9316406 C155.539061,35.3105588 155.375,37.6249887 155.375,39.875 L155.375,39.875 Z" id="l"></path>
                <path d="M188.875,60.5117188 C188.031246,61.2851601 186.982428,62.1113237 185.728516,62.9902344 C184.474603,63.869145 183.121101,64.6777307 181.667969,65.4160156 C180.214836,66.1543006 178.732429,66.7695288 177.220703,67.2617188 C175.708977,67.7539087 174.273444,68 172.914062,68 C171.695306,68 170.669926,67.8300798 169.837891,67.4902344 C169.005855,67.1503889 168.332034,66.6757843 167.816406,66.0664062 C167.300779,65.4570282 166.931642,64.712895 166.708984,63.8339844 C166.486327,62.9550737 166.375,61.9882865 166.375,60.9335938 C166.375,59.4570239 166.54492,57.7402442 166.884766,55.7832031 C167.224611,53.8261621 167.640623,51.7988386 168.132812,49.7011719 C168.625002,47.6035051 169.146482,45.5117292 169.697266,43.4257812 C170.24805,41.3398333 170.734373,39.4179775 171.15625,37.6601562 C171.320313,37.0507782 171.648435,36.529299 172.140625,36.0957031 C172.632815,35.6621072 173.18945,35.3105482 173.810547,35.0410156 C174.431644,34.771483 175.076169,34.5722663 175.744141,34.4433594 C176.412113,34.3144525 177.015622,34.25 177.554688,34.25 C178.539067,34.25 179.207029,34.4316388 179.558594,34.7949219 C179.910158,35.1582049 180.085938,35.6445282 180.085938,36.2539062 C180.085938,36.7695338 179.968751,37.513667 179.734375,38.4863281 C179.499999,39.4589892 179.207033,40.5605407 178.855469,41.7910156 C178.503904,43.0214905 178.128908,44.345696 177.730469,45.7636719 C177.332029,47.1816477 176.957033,48.5996023 176.605469,50.0175781 C176.253904,51.435554 175.960939,52.8183526 175.726562,54.1660156 C175.492186,55.5136786 175.375,56.7265571 175.375,57.8046875 C175.375,58.8593803 175.492186,59.6972625 175.726562,60.3183594 C175.960939,60.9394562 176.441403,61.25 177.167969,61.25 C178.011723,61.25 178.949214,60.9570342 179.980469,60.3710938 C181.011724,59.7851533 182.054682,59.076176 183.109375,58.2441406 C184.164068,57.4121052 185.195307,56.5507857 186.203125,55.6601562 C187.210943,54.7695268 188.101559,54.0078157 188.875,53.375 L188.875,60.5117188 Z M173.160156,24.3710938 C173.160156,23.8320286 173.277343,23.2226596 173.511719,22.5429688 C173.746095,21.8632779 174.12695,21.2246124 174.654297,20.6269531 C175.181643,20.0292939 175.884761,19.5253927 176.763672,19.1152344 C177.642583,18.7050761 178.738275,18.5 180.050781,18.5 C180.871098,18.5 181.644528,18.5937491 182.371094,18.78125 C183.09766,18.9687509 183.730466,19.2558574 184.269531,19.6425781 C184.808596,20.0292988 185.236327,20.5390593 185.552734,21.171875 C185.869142,21.8046907 186.027344,22.5546832 186.027344,23.421875 C186.027344,24.218754 185.898439,24.9921837 185.640625,25.7421875 C185.382811,26.4921913 184.972659,27.1601533 184.410156,27.7460938 C183.847653,28.3320342 183.138676,28.8066388 182.283203,29.1699219 C181.42773,29.5332049 180.40235,29.7148438 179.207031,29.7148438 C177.144521,29.7148438 175.621099,29.2285205 174.636719,28.2558594 C173.652339,27.2831983 173.160156,25.9882893 173.160156,24.3710938 L173.160156,24.3710938 Z" id="i"></path>
                <path d="M198.363281,68 C196.20702,68 194.314461,67.6015665 192.685547,66.8046875 C191.056632,66.0078085 189.691412,64.9414129 188.589844,63.6054688 C187.488276,62.2695246 186.656253,60.722665 186.09375,58.9648438 C185.531247,57.2070225 185.25,55.3789157 185.25,53.4804688 C185.25,52.121087 185.390624,50.7031324 185.671875,49.2265625 C185.953126,47.7499926 186.369138,46.3027415 186.919922,44.8847656 C187.470706,43.4667898 188.150387,42.1132877 188.958984,40.8242188 C189.767582,39.5351498 190.705073,38.4043017 191.771484,37.4316406 C192.837896,36.4589795 194.027337,35.6855497 195.339844,35.1113281 C196.65235,34.5371065 198.093742,34.25 199.664062,34.25 C201.000007,34.25 202.236322,34.4550761 203.373047,34.8652344 C204.509771,35.2753927 205.482418,35.8437464 206.291016,36.5703125 C207.099613,37.2968786 207.73242,38.1581981 208.189453,39.1542969 C208.646487,40.1503956 208.875,41.2226505 208.875,42.3710938 C208.875,43.1679727 208.769532,43.9531211 208.558594,44.7265625 C208.347655,45.5000039 208.037111,46.1972625 207.626953,46.8183594 C207.216795,47.4394562 206.718753,47.9374981 206.132812,48.3125 C205.546872,48.6875019 204.890629,48.875 204.164062,48.875 C203.062494,48.875 202.341799,48.5820342 202.001953,47.9960938 C201.662108,47.4101533 201.492188,46.6015677 201.492188,45.5703125 C201.492188,45.1484354 201.509765,44.7031273 201.544922,44.234375 C201.580078,43.7656227 201.597656,43.3437519 201.597656,42.96875 C201.597656,42.4062472 201.539063,41.9375019 201.421875,41.5625 C201.304687,41.1874981 201.046877,41 200.648438,41 C199.687495,41 198.867191,41.2285133 198.1875,41.6855469 C197.507809,42.1425804 196.927737,42.7402307 196.447266,43.4785156 C195.966794,44.2168006 195.585939,45.0488235 195.304688,45.9746094 C195.023436,46.9003953 194.800782,47.8203079 194.636719,48.734375 C194.472655,49.6484421 194.367188,50.5214802 194.320312,51.3535156 C194.273437,52.185551 194.25,52.8828097 194.25,53.4453125 C194.25,54.2890667 194.326171,55.1679642 194.478516,56.0820312 C194.63086,56.9960983 194.917967,57.8339806 195.339844,58.5957031 C195.761721,59.3574257 196.335934,59.9902319 197.0625,60.4941406 C197.789066,60.9980494 198.726557,61.25 199.875,61.25 C201.000006,61.25 202.242181,60.9043003 203.601562,60.2128906 C204.960944,59.5214809 206.326165,58.6484428 207.697266,57.59375 C209.068366,56.5390572 210.374994,55.3789126 211.617188,54.1132812 C212.859381,52.8476499 213.925777,51.6523494 214.816406,50.5273438 L217.242188,54.6054688 C215.484366,57.1132938 213.585948,59.3515527 211.546875,61.3203125 C210.679683,62.1640667 209.736333,62.984371 208.716797,63.78125 C207.697261,64.578129 206.630865,65.2871063 205.517578,65.9082031 C204.404291,66.5293 203.244147,67.0332012 202.037109,67.4199219 C200.830072,67.8066426 199.605475,68 198.363281,68 L198.363281,68 Z" id="c"></path>
                <path d="M233.875,60.5117188 C233.031246,61.2851601 231.982428,62.1113237 230.728516,62.9902344 C229.474603,63.869145 228.121101,64.6777307 226.667969,65.4160156 C225.214836,66.1543006 223.732429,66.7695288 222.220703,67.2617188 C220.708977,67.7539087 219.273444,68 217.914062,68 C216.695306,68 215.669926,67.8300798 214.837891,67.4902344 C214.005855,67.1503889 213.332034,66.6757843 212.816406,66.0664062 C212.300779,65.4570282 211.931642,64.712895 211.708984,63.8339844 C211.486327,62.9550737 211.375,61.9882865 211.375,60.9335938 C211.375,59.4570239 211.54492,57.7402442 211.884766,55.7832031 C212.224611,53.8261621 212.640623,51.7988386 213.132812,49.7011719 C213.625002,47.6035051 214.146482,45.5117292 214.697266,43.4257812 C215.24805,41.3398333 215.734373,39.4179775 216.15625,37.6601562 C216.320313,37.0507782 216.648435,36.529299 217.140625,36.0957031 C217.632815,35.6621072 218.18945,35.3105482 218.810547,35.0410156 C219.431644,34.771483 220.076169,34.5722663 220.744141,34.4433594 C221.412113,34.3144525 222.015622,34.25 222.554688,34.25 C223.539067,34.25 224.207029,34.4316388 224.558594,34.7949219 C224.910158,35.1582049 225.085938,35.6445282 225.085938,36.2539062 C225.085938,36.7695338 224.968751,37.513667 224.734375,38.4863281 C224.499999,39.4589892 224.207033,40.5605407 223.855469,41.7910156 C223.503904,43.0214905 223.128908,44.345696 222.730469,45.7636719 C222.332029,47.1816477 221.957033,48.5996023 221.605469,50.0175781 C221.253904,51.435554 220.960939,52.8183526 220.726562,54.1660156 C220.492186,55.5136786 220.375,56.7265571 220.375,57.8046875 C220.375,58.8593803 220.492186,59.6972625 220.726562,60.3183594 C220.960939,60.9394562 221.441403,61.25 222.167969,61.25 C223.011723,61.25 223.949214,60.9570342 224.980469,60.3710938 C226.011724,59.7851533 227.054682,59.076176 228.109375,58.2441406 C229.164068,57.4121052 230.195307,56.5507857 231.203125,55.6601562 C232.210943,54.7695268 233.101559,54.0078157 233.875,53.375 L233.875,60.5117188 Z M218.160156,24.3710938 C218.160156,23.8320286 218.277343,23.2226596 218.511719,22.5429688 C218.746095,21.8632779 219.12695,21.2246124 219.654297,20.6269531 C220.181643,20.0292939 220.884761,19.5253927 221.763672,19.1152344 C222.642583,18.7050761 223.738275,18.5 225.050781,18.5 C225.871098,18.5 226.644528,18.5937491 227.371094,18.78125 C228.09766,18.9687509 228.730466,19.2558574 229.269531,19.6425781 C229.808596,20.0292988 230.236327,20.5390593 230.552734,21.171875 C230.869142,21.8046907 231.027344,22.5546832 231.027344,23.421875 C231.027344,24.218754 230.898439,24.9921837 230.640625,25.7421875 C230.382811,26.4921913 229.972659,27.1601533 229.410156,27.7460938 C228.847653,28.3320342 228.138676,28.8066388 227.283203,29.1699219 C226.42773,29.5332049 225.40235,29.7148438 224.207031,29.7148438 C222.144521,29.7148438 220.621099,29.2285205 219.636719,28.2558594 C218.652339,27.2831983 218.160156,25.9882893 218.160156,24.3710938 L218.160156,24.3710938 Z" id="i"></path>
                <path d="M253.085938,41.6679688 C253.765628,43.0273505 254.275389,44.4628831 254.615234,45.9746094 C254.95508,47.4863357 255.125,48.9335868 255.125,50.3164062 C255.125,51.6992257 254.972658,53.093743 254.667969,54.5 C254.36328,55.906257 253.923831,57.2656184 253.349609,58.578125 C252.775388,59.8906316 252.07227,61.121088 251.240234,62.2695312 C250.408199,63.4179745 249.45899,64.4140583 248.392578,65.2578125 C247.326167,66.1015667 246.160163,66.7695288 244.894531,67.2617188 C243.6289,67.7539087 242.281257,68 240.851562,68 C238.789052,68 237.025398,67.5488326 235.560547,66.6464844 C234.095696,65.7441361 232.894536,64.5664135 231.957031,63.1132812 C231.019527,61.660149 230.333987,60.0195404 229.900391,58.1914062 C229.466795,56.3632721 229.25,54.5117281 229.25,52.6367188 C229.25,50.0585809 229.636715,47.6504018 230.410156,45.4121094 C231.183598,43.1738169 232.291008,41.2285239 233.732422,39.5761719 C235.173835,37.9238199 236.93749,36.6230516 239.023438,35.6738281 C241.109385,34.7246046 243.453112,34.25 246.054688,34.25 C248.281261,34.25 250.367178,34.5956997 252.3125,35.2871094 C254.257822,35.9785191 256.08007,36.9042911 257.779297,38.0644531 C259.478524,39.2246152 261.06054,40.55468 262.525391,42.0546875 C263.990242,43.554695 265.355462,45.1015545 266.621094,46.6953125 L265.953125,51.6523438 C265.320309,50.8085895 264.464849,49.8945362 263.386719,48.9101562 C262.308588,47.9257763 261.166022,46.9648484 259.958984,46.0273438 C258.751947,45.0898391 257.562506,44.2050823 256.390625,43.3730469 C255.218744,42.5410115 254.210942,41.8437528 253.367188,41.28125 L253.085938,41.6679688 Z M242.222656,61.25 C243.019535,61.25 243.792965,60.8457072 244.542969,60.0371094 C245.292973,59.2285116 245.949216,58.2089905 246.511719,56.9785156 C247.074222,55.7480407 247.525389,54.3886793 247.865234,52.9003906 C248.20508,51.4121019 248.375,49.988288 248.375,48.6289062 C248.375,47.5507759 248.29297,46.5488328 248.128906,45.6230469 C247.964843,44.697261 247.718752,43.8945346 247.390625,43.2148438 C247.062498,42.5351529 246.640628,41.9960957 246.125,41.5976562 C245.609372,41.1992168 244.988285,41 244.261719,41 C243.300776,41 242.386723,41.4101521 241.519531,42.2304688 C240.652339,43.0507854 239.890628,44.099603 239.234375,45.3769531 C238.578122,46.6543033 238.062502,48.0663985 237.6875,49.6132812 C237.312498,51.160164 237.125,52.6484304 237.125,54.078125 C237.125,55.0625049 237.218749,55.9882769 237.40625,56.8554688 C237.593751,57.7226606 237.886717,58.4785124 238.285156,59.1230469 C238.683596,59.7675813 239.210934,60.2832012 239.867188,60.6699219 C240.523441,61.0566426 241.308589,61.25 242.222656,61.25 L242.222656,61.25 Z" id="o"></path>
                <path d="M287.796875,36.5351562 C287.796875,37.1679719 287.726563,38.0292914 287.585938,39.1191406 C287.445312,40.2089898 287.263673,41.4042904 287.041016,42.7050781 C286.818358,44.0058659 286.578126,45.3476493 286.320312,46.7304688 C286.062499,48.1132882 285.822267,49.4023378 285.599609,50.5976562 C285.376952,51.7929747 285.195313,52.8417924 285.054688,53.7441406 C284.914062,54.6464889 284.84375,55.2734357 284.84375,55.625 C284.84375,56.2812533 284.855469,56.8847629 284.878906,57.4355469 C284.902344,57.9863309 284.972656,58.4667948 285.089844,58.8769531 C285.207032,59.2871114 285.388671,59.6035145 285.634766,59.8261719 C285.880861,60.0488292 286.238279,60.1601562 286.707031,60.1601562 C287.222659,60.1601562 287.849606,60.0312513 288.587891,59.7734375 C289.326176,59.5156237 290.111324,59.169924 290.943359,58.7363281 C291.775395,58.3027322 292.624996,57.8105496 293.492188,57.2597656 C294.359379,56.7089816 295.185543,56.1289093 295.970703,55.5195312 C296.755863,54.9101532 297.4707,54.3066436 298.115234,53.7089844 C298.759769,53.1113251 299.281248,52.5546901 299.679688,52.0390625 C299.679688,52.8125039 299.685547,53.5156218 299.697266,54.1484375 C299.708984,54.7812532 299.714844,55.3847628 299.714844,55.9589844 C299.714844,56.533206 299.720703,57.124997 299.732422,57.734375 C299.744141,58.343753 299.75,59.0234337 299.75,59.7734375 C299.234372,60.2890651 298.595707,60.8398408 297.833984,61.4257812 C297.072262,62.0117217 296.22852,62.5976533 295.302734,63.1835938 C294.376948,63.7695342 293.392583,64.3320286 292.349609,64.8710938 C291.306635,65.4101589 290.257818,65.8847636 289.203125,66.2949219 C288.148432,66.7050802 287.105474,67.0332019 286.074219,67.2792969 C285.042964,67.5253919 284.082036,67.6484375 283.191406,67.6484375 C282.300777,67.6484375 281.539066,67.472658 280.90625,67.1210938 C280.273434,66.7695295 279.728518,66.2773469 279.271484,65.6445312 C278.814451,65.0117156 278.427736,64.2558638 278.111328,63.3769531 C277.79492,62.4980425 277.519532,61.5195366 277.285156,60.4414062 C276.441402,61.5429743 275.550786,62.556636 274.613281,63.4824219 C273.675777,64.4082078 272.720708,65.2109341 271.748047,65.890625 C270.775386,66.5703159 269.791021,67.1035137 268.794922,67.4902344 C267.798823,67.8769551 266.832036,68.0703125 265.894531,68.0703125 C265.12109,68.0703125 264.394535,67.9414075 263.714844,67.6835938 C263.035153,67.42578 262.431643,66.9921905 261.904297,66.3828125 C261.37695,65.7734345 260.960939,64.9707081 260.65625,63.9746094 C260.351561,62.9785106 260.199219,61.7421949 260.199219,60.265625 C260.199219,58.4609285 260.416013,56.1640764 260.849609,53.375 C261.283205,50.5859236 261.816403,47.3984554 262.449219,43.8125 C262.496094,43.4609357 262.583984,42.9863311 262.712891,42.3886719 C262.841798,41.7910126 263.017577,41.1406285 263.240234,40.4375 C263.462892,39.7343715 263.73828,39.0195349 264.066406,38.2929688 C264.394533,37.5664026 264.781248,36.9101592 265.226562,36.3242188 C265.671877,35.7382783 266.193356,35.2578144 266.791016,34.8828125 C267.388675,34.5078106 268.062496,34.3085939 268.8125,34.2851562 C270.054694,34.3320315 270.94531,34.490233 271.484375,34.7597656 C272.02344,35.0292982 272.292969,35.3632793 272.292969,35.7617188 C272.08203,37.0039125 271.853517,38.3867111 271.607422,39.9101562 C271.361327,41.4336014 271.109376,42.9687423 270.851562,44.515625 C270.593749,46.0625077 270.347657,47.5683521 270.113281,49.0332031 C269.878905,50.4980542 269.66797,51.8046818 269.480469,52.953125 C269.292968,54.1015682 269.146485,55.0273402 269.041016,55.7304688 C268.935546,56.4335973 268.882812,56.7968749 268.882812,56.8203125 C268.882812,57.2421896 268.923828,57.6464824 269.005859,58.0332031 C269.087891,58.4199238 269.210937,58.7656235 269.375,59.0703125 C269.539063,59.3750015 269.749999,59.6210928 270.007812,59.8085938 C270.265626,59.9960947 270.570311,60.0898438 270.921875,60.0898438 C271.437503,60.0898438 271.964841,59.9550795 272.503906,59.6855469 C273.042971,59.4160143 273.552732,59.0292994 274.033203,58.5253906 C274.513674,58.0214819 274.941404,57.4003943 275.316406,56.6621094 C275.691408,55.9238244 275.972655,55.0859422 276.160156,54.1484375 L279.640625,36.2890625 C279.757813,35.7265597 280.232418,35.2519551 281.064453,34.8652344 C281.896489,34.4785137 282.839838,34.2851562 283.894531,34.2851562 C285.08985,34.2851562 286.039059,34.4960916 286.742188,34.9179688 C287.445316,35.3398459 287.796875,35.878903 287.796875,36.5351562 L287.796875,36.5351562 Z" id="u"></path>
                <path d="M295.375,54.5 C296.687507,53.3749944 297.753902,52.4375038 298.574219,51.6875 C299.394535,50.9374962 300.097653,50.2519562 300.683594,49.6308594 C301.269534,49.0097625 301.802732,48.3828157 302.283203,47.75 C302.763674,47.1171843 303.332028,46.3671918 303.988281,45.5 C304.644535,44.6328082 305.441402,43.5722719 306.378906,42.3183594 C307.316411,41.0644469 308.535149,39.5000094 310.035156,37.625 C310.339845,37.2031229 310.679686,36.7929707 311.054688,36.3945312 C311.429689,35.9960918 311.845701,35.6386735 312.302734,35.3222656 C312.759768,35.0058578 313.263669,34.7480479 313.814453,34.5488281 C314.365237,34.3496084 314.980465,34.25 315.660156,34.25 C316.785162,34.25 317.652341,34.3730456 318.261719,34.6191406 C318.871097,34.8652356 319.316405,35.1640607 319.597656,35.515625 C319.878908,35.8671893 320.042969,36.2363262 320.089844,36.6230469 C320.136719,37.0097676 320.160156,37.3437486 320.160156,37.625 C320.160156,38.1875028 319.937502,38.8085904 319.492188,39.4882812 C319.046873,40.1679721 318.55469,40.8242156 318.015625,41.4570312 C317.47656,42.0898469 316.966799,42.6699192 316.486328,43.1972656 C316.005857,43.724612 315.730469,44.1171862 315.660156,44.375 C315.660156,45.1015661 315.71289,45.7636689 315.818359,46.3613281 C315.923829,46.9589874 316.064452,47.544919 316.240234,48.1191406 C316.416017,48.6933622 316.597655,49.3027312 316.785156,49.9472656 C316.972657,50.5918001 317.154296,51.3359333 317.330078,52.1796875 C317.50586,53.0234417 317.646484,53.9960882 317.751953,55.0976562 C317.857422,56.1992243 317.910156,57.4999925 317.910156,59 C318.75391,58.4374972 319.662105,57.9277367 320.634766,57.4707031 C321.607427,57.0136696 322.621088,56.539065 323.675781,56.046875 C324.730474,55.554685 325.814448,55.0097686 326.927734,54.4121094 C328.041021,53.8144501 329.160151,53.0937542 330.285156,52.25 L330.320312,60.125 C328.86718,61.2500056 327.185556,62.3046826 325.275391,63.2890625 C323.365225,64.2734424 321.361339,65.1406212 319.263672,65.890625 C317.166005,66.6406288 315.044933,67.2324197 312.900391,67.6660156 C310.755849,68.0996115 308.722666,68.3164062 306.800781,68.3164062 C305.417962,68.3164062 304.128912,68.1875013 302.933594,67.9296875 C301.738275,67.6718737 300.689458,67.2675809 299.787109,66.7167969 C298.884761,66.1660129 298.152347,65.445317 297.589844,64.5546875 C297.027341,63.664058 296.687501,62.5859438 296.570312,61.3203125 C296.242186,61.3906254 295.919923,61.4374999 295.603516,61.4609375 C295.287108,61.4843751 294.976564,61.4960938 294.671875,61.4960938 C294.296873,61.4960938 293.945314,61.4843751 293.617188,61.4609375 C293.289061,61.4374999 293.007814,61.3496101 292.773438,61.1972656 C292.539061,61.0449211 292.351563,60.7988298 292.210938,60.4589844 C292.070312,60.1191389 292,59.6328157 292,59 C292,58.4374972 292.140624,57.916018 292.421875,57.4355469 C292.703126,56.9550757 293.031248,56.5273456 293.40625,56.1523438 C293.781252,55.7773419 294.156248,55.4492202 294.53125,55.1679688 C294.906252,54.8867173 295.187499,54.6640633 295.375,54.5 L295.375,54.5 Z M299.875,59 C300.156251,59 300.466795,59.1757795 300.806641,59.5273438 C301.146486,59.878908 301.53906,60.2656229 301.984375,60.6875 C302.42969,61.1093771 302.94531,61.496092 303.53125,61.8476562 C304.11719,62.1992205 304.785152,62.375 305.535156,62.375 C306.449223,62.375 307.205075,62.2226578 307.802734,61.9179688 C308.400394,61.6132797 308.874998,61.2089869 309.226562,60.7050781 C309.578127,60.2011694 309.824218,59.6152377 309.964844,58.9472656 C310.105469,58.2792935 310.175781,57.5820349 310.175781,56.8554688 C310.175781,56.2226531 310.134766,55.5781283 310.052734,54.921875 C309.970703,54.2656217 309.865235,53.6386749 309.736328,53.0410156 C309.607421,52.4433564 309.466798,51.880862 309.314453,51.3535156 C309.162109,50.8261692 309.027344,50.3750019 308.910156,50 L299.875,59 Z" id="s"></path>
            </g>
        </g>
    </g>
</svg>