<?xml version="1.0" encoding="UTF-8" standalone="no"?>
<svg width="34px" height="35px" viewBox="0 0 34 35" version="1.1" xmlns="http://www.w3.org/2000/svg" xmlns:xlink="http://www.w3.org/1999/xlink">
    <!-- Generator: Sketch 3.7.1 (28215) - http://www.bohemiancoding.com/sketch -->
    <title>deligates-icon</title>
    <desc>Created with Sketch.</desc>
    <defs></defs>
    <g id="Symbols" stroke="none" stroke-width="1" fill="none" fill-rule="evenodd">
        <g id="Intro-Section" transform="translate(-960.000000, -318.000000)" fill="#FFFFFF">
            <g transform="translate(0.000000, 90.000000)" id="Delegates">
                <g transform="translate(940.170404, 212.000000)">
                    <g id="deligates-icon" transform="translate(20.179372, 16.816143)">
                        <g id="person-icon">
                            <path d="M4.20403587,4.20403587 C5.36540078,4.20403587 6.30605381,3.26338285 6.30605381,2.10201794 C6.30605381,0.940653027 5.36540078,0 4.20403587,0 C3.04267096,0 2.10201794,0.940653027 2.10201794,2.10201794 C2.10201794,3.26338285 3.04267096,4.20403587 4.20403587,4.20403587 L4.20403587,4.20403587 Z M4.20403587,5.25504484 C2.8009389,5.25504484 0,5.95922085 0,7.35706278 L0,8.40807175 L8.40807175,8.40807175 L8.40807175,7.35706278 C8.40807175,5.95922085 5.60713285,5.25504484 4.20403587,5.25504484 L4.20403587,5.25504484 Z" id="Shape"></path>
                        </g>
                        <g id="person-icon" transform="translate(12.612108, 0.000000)">
                            <path d="M4.20403587,4.20403587 C5.36540078,4.20403587 6.30605381,3.26338285 6.30605381,2.10201794 C6.30605381,0.940653027 5.36540078,0 4.20403587,0 C3.04267096,0 2.10201794,0.940653027 2.10201794,2.10201794 C2.10201794,3.26338285 3.04267096,4.20403587 4.20403587,4.20403587 L4.20403587,4.20403587 Z M4.20403587,5.25504484 C2.8009389,5.25504484 0,5.95922085 0,7.35706278 L0,8.40807175 L8.40807175,8.40807175 L8.40807175,7.35706278 C8.40807175,5.95922085 5.60713285,5.25504484 4.20403587,5.25504484 L4.20403587,5.25504484 Z" id="Shape"></path>
                        </g>
                        <g id="person-icon" transform="translate(25.224215, 0.000000)">
                            <path d="M4.20403587,4.20403587 C5.36540078,4.20403587 6.30605381,3.26338285 6.30605381,2.10201794 C6.30605381,0.940653027 5.36540078,0 4.20403587,0 C3.04267096,0 2.10201794,0.940653027 2.10201794,2.10201794 C2.10201794,3.26338285 3.04267096,4.20403587 4.20403587,4.20403587 L4.20403587,4.20403587 Z M4.20403587,5.25504484 C2.8009389,5.25504484 0,5.95922085 0,7.35706278 L0,8.40807175 L8.40807175,8.40807175 L8.40807175,7.35706278 C8.40807175,5.95922085 5.60713285,5.25504484 4.20403587,5.25504484 L4.20403587,5.25504484 Z" id="Shape"></path>
                        </g>
                        <g id="person-icon" transform="translate(0.000000, 12.612108)">
                            <path d="M4.20403587,4.20403587 C5.36540078,4.20403587 6.30605381,3.26338285 6.30605381,2.10201794 C6.30605381,0.940653027 5.36540078,0 4.20403587,0 C3.04267096,0 2.10201794,0.940653027 2.10201794,2.10201794 C2.10201794,3.26338285 3.04267096,4.20403587 4.20403587,4.20403587 L4.20403587,4.20403587 Z M4.20403587,5.25504484 C2.8009389,5.25504484 0,5.95922085 0,7.35706278 L0,8.40807175 L8.40807175,8.40807175 L8.40807175,7.35706278 C8.40807175,5.95922085 5.60713285,5.25504484 4.20403587,5.25504484 L4.20403587,5.25504484 Z" id="Shape"></path>
                        </g>
                        <g id="person-icon" transform="translate(12.612108, 12.612108)">
                            <path d="M4.20403587,4.20403587 C5.36540078,4.20403587 6.30605381,3.26338285 6.30605381,2.10201794 C6.30605381,0.940653027 5.36540078,0 4.20403587,0 C3.04267096,0 2.10201794,0.940653027 2.10201794,2.10201794 C2.10201794,3.26338285 3.04267096,4.20403587 4.20403587,4.20403587 L4.20403587,4.20403587 Z M4.20403587,5.25504484 C2.8009389,5.25504484 0,5.95922085 0,7.35706278 L0,8.40807175 L8.40807175,8.40807175 L8.40807175,7.35706278 C8.40807175,5.95922085 5.60713285,5.25504484 4.20403587,5.25504484 L4.20403587,5.25504484 Z" id="Shape"></path>
                        </g>
                        <g id="person-icon" transform="translate(25.224215, 12.612108)">
                            <path d="M4.20403587,4.20403587 C5.36540078,4.20403587 6.30605381,3.26338285 6.30605381,2.10201794 C6.30605381,0.940653027 5.36540078,0 4.20403587,0 C3.04267096,0 2.10201794,0.940653027 2.10201794,2.10201794 C2.10201794,3.26338285 3.04267096,4.20403587 4.20403587,4.20403587 L4.20403587,4.20403587 Z M4.20403587,5.25504484 C2.8009389,5.25504484 0,5.95922085 0,7.35706278 L0,8.40807175 L8.40807175,8.40807175 L8.40807175,7.35706278 C8.40807175,5.95922085 5.60713285,5.25504484 4.20403587,5.25504484 L4.20403587,5.25504484 Z" id="Shape"></path>
                        </g>
                        <g id="person-icon" transform="translate(0.000000, 25.224215)">
                            <path d="M4.20403587,4.20403587 C5.36540078,4.20403587 6.30605381,3.26338285 6.30605381,2.10201794 C6.30605381,0.940653027 5.36540078,0 4.20403587,0 C3.04267096,0 2.10201794,0.940653027 2.10201794,2.10201794 C2.10201794,3.26338285 3.04267096,4.20403587 4.20403587,4.20403587 L4.20403587,4.20403587 Z M4.20403587,5.25504484 C2.8009389,5.25504484 0,5.95922085 0,7.35706278 L0,8.40807175 L8.40807175,8.40807175 L8.40807175,7.35706278 C8.40807175,5.95922085 5.60713285,5.25504484 4.20403587,5.25504484 L4.20403587,5.25504484 Z" id="Shape"></path>
                        </g>
                        <g id="person-icon" transform="translate(12.612108, 25.224215)">
                            <path d="M4.20403587,4.20403587 C5.36540078,4.20403587 6.30605381,3.26338285 6.30605381,2.10201794 C6.30605381,0.940653027 5.36540078,0 4.20403587,0 C3.04267096,0 2.10201794,0.940653027 2.10201794,2.10201794 C2.10201794,3.26338285 3.04267096,4.20403587 4.20403587,4.20403587 L4.20403587,4.20403587 Z M4.20403587,5.25504484 C2.8009389,5.25504484 0,5.95922085 0,7.35706278 L0,8.40807175 L8.40807175,8.40807175 L8.40807175,7.35706278 C8.40807175,5.95922085 5.60713285,5.25504484 4.20403587,5.25504484 L4.20403587,5.25504484 Z" id="Shape"></path>
                        </g>
                        <g id="person-icon" transform="translate(25.224215, 25.224215)">
                            <path d="M4.20403587,4.20403587 C5.36540078,4.20403587 6.30605381,3.26338285 6.30605381,2.10201794 C6.30605381,0.940653027 5.36540078,0 4.20403587,0 C3.04267096,0 2.10201794,0.940653027 2.10201794,2.10201794 C2.10201794,3.26338285 3.04267096,4.20403587 4.20403587,4.20403587 L4.20403587,4.20403587 Z M4.20403587,5.25504484 C2.8009389,5.25504484 0,5.95922085 0,7.35706278 L0,8.40807175 L8.40807175,8.40807175 L8.40807175,7.35706278 C8.40807175,5.95922085 5.60713285,5.25504484 4.20403587,5.25504484 L4.20403587,5.25504484 Z" id="Shape"></path>
                        </g>
                    </g>
                </g>
            </g>
        </g>
    </g>
</svg>