<?xml version="1.0" encoding="UTF-8" standalone="no"?>
<svg width="25px" height="20px" viewBox="0 0 25 20" version="1.1" xmlns="http://www.w3.org/2000/svg" xmlns:xlink="http://www.w3.org/1999/xlink">
    <!-- Generator: Sketch 3.7.1 (28215) - http://www.bohemiancoding.com/sketch -->
    <title>twitter-icon</title>
    <desc>Created with Sketch.</desc>
    <defs></defs>
    <g id="Symbols" stroke="none" stroke-width="1" fill="none" fill-rule="evenodd">
        <g id="Text-Tweet" transform="translate(-26.000000, -23.000000)" fill="#1DA1F2">
            <g id="twitter-icon">
                <path d="M33.7396708,43 C30.888379,43 28.2344046,42.1641837 26,40.7316386 C26.3949951,40.7782679 26.7969214,40.8021226 27.2044289,40.8021226 C29.5698984,40.8021226 31.7469621,39.994932 33.4749305,38.6407925 C31.2655506,38.6000144 29.4009363,37.1402839 28.7584842,35.1343247 C29.0667028,35.1932865 29.3830229,35.2248828 29.7083447,35.2248828 C30.1688722,35.2248828 30.614907,35.1632205 31.0386175,35.0478175 C28.7287786,34.5840452 26.9884778,32.5433391 26.9884778,30.0970123 C26.9884778,30.0757681 26.9884778,30.0546139 26.9888379,30.0335497 C27.6696373,30.4117149 28.4481052,30.6388301 29.2758125,30.6650253 C27.9210551,29.7596252 27.0296157,28.2141976 27.0296157,26.462539 C27.0296157,25.5372449 27.278603,24.6699223 27.7132056,23.9242139 C30.2034388,26.9788818 33.9237558,28.9889818 38.1199932,29.1995337 C38.0339368,28.8300102 37.9891983,28.4446435 37.9891983,28.0489247 C37.9891983,25.2606199 40.2498879,23 43.0383478,23 C44.4905038,23 45.8026832,23.613202 46.7237382,24.5944873 C47.8737967,24.3680022 48.9543621,23.9477986 49.9298775,23.3692535 C49.5528858,24.5482181 48.7523637,25.537695 47.7098756,26.1625994 C48.7312097,26.0405351 49.7042946,25.7691311 50.6097767,25.3675611 C49.932848,26.3800826 49.0767853,27.2693696 48.0903779,27.9812313 C48.1000997,28.1977243 48.1049607,28.4154777 48.1049607,28.6344012 C48.1049607,35.306439 43.0265556,43 33.7396708,43"></path>
            </g>
        </g>
    </g>
</svg>